PathFileType	3	(X/Y/Z)	random_1__view1_aligned.trc
DataRate	CameraRate	NumFrames	NumMarkers	Units	OrigDataRate	OrigDataStartFrame	OrigNumFrames
100.0	100.0	17	19	mm	100.0	648	1930
Frame#	Time	pelvis			neck			head			hip_left			hip_right			knee_left			knee_right			ankle_left			ankle_right			heel_left			heel_right			toe_left			toe_right			shoulder_left			shoulder_right			elbow_left			elbow_right			wrist_left			wrist_right			
		X1	Y1	Z1	X2	Y2	Z2	X3	Y3	Z3	X4	Y4	Z4	X5	Y5	Z5	X6	Y6	Z6	X7	Y7	Z7	X8	Y8	Z8	X9	Y9	Z9	X10	Y10	Z10	X11	Y11	Z11	X12	Y12	Z12	X13	Y13	Z13	X14	Y14	Z14	X15	Y15	Z15	X16	Y16	Z16	X17	Y17	Z17	X18	Y18	Z18	X19	Y19	Z19	
648	6.47000	178.573838	949.153254	-91.587935	149.990950	1538.077523	-79.491351	77.475022	1665.550208	-150.739560	122.362329	950.859856	-37.898965	234.785374	947.446654	-145.276948	-0.119268	521.772010	-55.670898	111.389630	531.110456	-250.710185	126.977044	164.798973	106.118357	169.247708	122.748545	-193.641753	161.202900	127.397746	137.606255	199.006794	73.643963	-173.238298	3.158782	77.624982	-8.478447	10.802968	69.530540	-296.498264	10.719028	1482.405104	25.874198	291.934996	1537.926403	-188.370127	-96.997135	1399.035449	-240.776562	124.740059	1411.117340	-404.068848	-4.679313	1626.614471	-292.465448	22.325346	1602.937691	-274.390687
649	6.48000	179.688288	948.513106	-93.629739	149.913210	1537.537877	-82.506937	76.060899	1664.163727	-153.599398	124.136369	950.214104	-39.324696	235.240254	946.812110	-147.934840	-0.335574	521.514340	-56.601143	109.469296	530.420425	-250.596412	130.375300	165.442275	103.862519	167.850304	122.185472	-192.902394	165.199331	128.346851	134.977619	197.754041	73.057417	-172.760083	5.911690	76.819866	-8.663734	8.414327	69.097508	-293.177496	11.366332	1481.593675	23.420472	291.413156	1537.644899	-191.445572	-96.480356	1397.252052	-242.600828	123.766955	1410.587372	-406.192472	-6.381264	1625.804278	-295.197415	20.868171	1601.815276	-276.690724
650	6.49000	180.802739	947.872958	-95.671544	149.835470	1536.998231	-85.522524	74.646775	1662.777245	-156.459235	125.910409	949.568353	-40.750427	235.695134	946.177567	-150.592733	-0.551880	521.256669	-57.531388	107.548961	529.730394	-250.482638	133.773556	166.085576	101.606681	166.452901	121.622398	-192.163036	169.195763	129.295957	132.348982	196.501289	72.470871	-172.281867	8.664598	76.014751	-8.849020	6.025686	68.664475	-289.856728	12.013636	1480.782246	20.966746	290.891315	1537.363396	-194.521017	-95.963577	1395.468654	-244.425094	122.793850	1410.057403	-408.316096	-8.083215	1624.994085	-297.929382	19.410996	1600.692861	-278.990761
651	6.50000	181.917189	947.232809	-97.713348	149.757731	1536.458585	-88.538110	73.232651	1661.390763	-159.319073	127.684448	948.922601	-42.176158	236.150014	945.543024	-153.250626	-0.768187	520.998999	-58.461633	105.628627	529.040363	-250.368865	137.171812	166.728878	99.350843	165.055497	121.059325	-191.423677	173.192194	130.245062	129.720346	195.248536	71.884325	-171.803652	11.417506	75.209636	-9.034307	3.637045	68.231443	-286.535960	12.660940	1479.970817	18.513020	290.369475	1537.081892	-197.596462	-95.446799	1393.685257	-246.249360	121.820746	1409.527435	-410.439720	-9.785166	1624.183891	-300.661350	17.953822	1599.570446	-281.290799
652	6.51000	183.031640	946.592661	-99.755152	149.679991	1535.918939	-91.553696	71.818527	1660.004281	-162.178910	129.458488	948.276849	-43.601889	236.604894	944.908481	-155.908518	-0.984493	520.741328	-59.391878	103.708293	528.350332	-250.255092	140.570068	167.372179	97.095005	163.658093	120.496252	-190.684319	177.188625	131.194167	127.091709	193.995783	71.297779	-171.325437	14.170414	74.404520	-9.219594	1.248404	67.798411	-283.215191	13.308245	1479.159388	16.059294	289.847634	1536.800388	-200.671907	-94.930020	1391.901860	-248.073626	120.847641	1408.997466	-412.563344	-11.487117	1623.373698	-303.393317	16.496647	1598.448032	-283.590836
653	6.52000	184.146090	945.952513	-101.796956	149.602251	1535.379292	-94.569283	70.404403	1658.617799	-165.038748	131.232528	947.631097	-45.027620	237.059773	944.273937	-158.566411	-1.200799	520.483658	-60.322123	101.787959	527.660301	-250.141319	143.968323	168.015481	94.839167	162.260690	119.933178	-189.944960	181.185057	132.143273	124.463073	192.743031	70.711233	-170.847221	16.923321	73.599405	-9.404881	-1.140237	67.365379	-279.894423	13.955549	1478.347959	13.605568	289.325794	1536.518884	-203.747352	-94.413241	1390.118463	-249.897893	119.874537	1408.467498	-414.686968	-13.189068	1622.563505	-306.125284	15.039472	1597.325617	-285.890873
654	6.53000	185.260540	945.312365	-103.838761	149.524511	1534.839646	-97.584869	68.990279	1657.231318	-167.898585	133.006568	946.985345	-46.453351	237.514653	943.639394	-161.224304	-1.417105	520.225988	-61.252368	99.867624	526.970270	-250.027546	147.366579	168.658782	92.583329	160.863286	119.370105	-189.205601	185.181488	133.092378	121.834436	191.490278	70.124687	-170.369006	19.676229	72.794290	-9.590168	-3.528878	66.932347	-276.573655	14.602853	1477.536530	11.151842	288.803953	1536.237381	-206.822797	-93.896463	1388.335066	-251.722159	118.901432	1407.937530	-416.810592	-14.891019	1621.753312	-308.857251	13.582298	1596.203202	-288.190910
655	6.54000	186.374991	944.672217	-105.880565	149.446772	1534.300000	-100.600455	67.576155	1655.844836	-170.758423	134.780607	946.339593	-47.879082	237.969533	943.004851	-163.882196	-1.633412	519.968317	-62.182613	97.947290	526.280239	-249.913773	150.764835	169.302084	90.327490	159.465883	118.807031	-188.466243	189.177919	134.041483	119.205800	190.237525	69.538141	-169.890791	22.429137	71.989175	-9.775454	-5.917519	66.499314	-273.252886	15.250157	1476.725101	8.698116	288.282113	1535.955877	-209.898242	-93.379684	1386.551668	-253.546425	117.928327	1407.407561	-418.934216	-16.592970	1620.943118	-311.589219	12.125123	1595.080788	-290.490947
656	6.55000	187.489441	944.032069	-107.922369	149.369032	1533.760354	-103.616042	66.162032	1654.458354	-173.618260	136.554647	945.693841	-49.304813	238.424413	942.370308	-166.540089	-1.849718	519.710647	-63.112858	96.026956	525.590208	-249.800000	154.163091	169.945386	88.071652	158.068479	118.243958	-187.726884	193.174351	134.990589	116.577163	188.984773	68.951595	-169.412575	25.182045	71.184059	-9.960741	-8.306161	66.066282	-269.932118	15.897461	1475.913672	6.244390	287.760272	1535.674373	-212.973687	-92.862906	1384.768271	-255.370691	116.955223	1406.877593	-421.057840	-18.294921	1620.132925	-314.321186	10.667948	1593.958373	-292.790985
657	6.56000	187.933066	943.321990	-109.764818	148.411506	1533.063288	-105.999620	63.517736	1652.605268	-175.032449	138.113564	944.979063	-50.507054	237.752729	941.664928	-169.022728	-1.400703	519.086497	-63.608118	93.602193	524.870644	-248.730669	155.728506	169.207315	83.969756	155.827769	117.505845	-187.527567	195.014646	134.264794	111.636379	186.832613	68.152897	-169.729152	25.900618	70.157368	-10.569065	-11.175715	65.537579	-266.533216	16.634321	1475.261202	4.951292	285.592160	1535.007295	-216.027886	-93.182538	1382.785970	-255.234084	114.275877	1405.147015	-421.422639	-20.402352	1618.182055	-315.966858	8.251126	1592.579848	-294.322042
658	6.57000	188.376691	942.611911	-111.607267	147.453980	1532.366222	-108.383199	60.873440	1650.752182	-176.446638	139.672480	944.264284	-51.709295	237.081045	940.959548	-171.505367	-0.951687	518.462348	-64.103378	91.177431	524.151080	-247.661338	157.293920	168.469244	79.867859	153.587058	116.767732	-187.328250	196.854940	133.539000	106.695594	184.680454	67.354199	-170.045728	26.619191	69.130677	-11.177388	-14.045269	65.008876	-263.134313	17.371182	1474.608733	3.658193	283.424047	1534.340217	-219.082086	-93.502170	1380.803669	-255.097477	111.596530	1403.416438	-421.787438	-22.509783	1616.231185	-317.612531	5.834303	1591.201324	-295.853100
659	6.58000	188.820315	941.901833	-113.449715	146.496454	1531.669156	-110.766777	58.229144	1648.899096	-177.860827	141.231397	943.549506	-52.911536	236.409361	940.254168	-173.988006	-0.502672	517.838199	-64.598637	88.752668	523.431516	-246.592007	158.859335	167.731173	75.765962	151.346348	116.029620	-187.128932	198.695235	132.813206	101.754809	182.528295	66.555501	-170.362305	27.337764	68.103987	-11.785712	-16.914824	64.480173	-259.735411	18.108042	1473.956263	2.365095	281.255935	1533.673139	-222.136286	-93.821803	1378.821368	-254.960869	108.917184	1401.685861	-422.152237	-24.617214	1614.280315	-319.258203	3.417481	1589.822799	-297.384158
660	6.59000	189.263940	941.191754	-115.292164	145.538927	1530.972090	-113.150356	55.584849	1647.046010	-179.275016	142.790314	942.834727	-54.113777	235.737677	939.548788	-176.470646	-0.053657	517.214050	-65.093897	86.327906	522.711952	-245.522676	160.424750	166.993102	71.664065	149.105637	115.291507	-186.929615	200.535530	132.087412	96.814025	180.376135	65.756804	-170.678881	28.056337	67.077296	-12.394036	-19.784378	63.951470	-256.336509	18.844902	1473.303794	1.071996	279.087822	1533.006060	-225.190485	-94.141435	1376.839067	-254.824262	106.237837	1399.955283	-422.517036	-26.724645	1612.329445	-320.903875	1.000658	1588.444275	-298.915216
661	6.60000	189.707565	940.481675	-117.134613	144.581401	1530.275025	-115.533934	52.940553	1645.192923	-180.689205	144.349230	942.119949	-55.316017	235.065993	938.843408	-178.953285	0.395359	516.589901	-65.589156	83.903143	521.992387	-244.453345	161.990164	166.255030	67.562169	146.864926	114.553394	-186.730298	202.375825	131.361618	91.873240	178.223976	64.958106	-170.995458	28.774911	66.050605	-13.002359	-22.653932	63.422767	-252.937606	19.581762	1472.651324	-0.221102	276.919710	1532.338982	-228.244685	-94.461068	1374.856766	-254.687655	103.558491	1398.224706	-422.881834	-28.832076	1610.378575	-322.549548	-1.416164	1587.065751	-300.446274
662	6.61000	190.151189	939.771597	-118.977062	143.623875	1529.577959	-117.917513	50.296257	1643.339837	-182.103394	145.908147	941.405170	-56.518258	234.394309	938.138028	-181.435924	0.844374	515.965751	-66.084416	81.478381	521.272823	-243.384015	163.555579	165.516959	63.460272	144.624216	113.815282	-186.530980	204.216120	130.635823	86.932455	176.071816	64.159408	-171.312034	29.493484	65.023914	-13.610683	-25.523487	62.894064	-249.538704	20.318622	1471.998855	-1.514201	274.751598	1531.671904	-231.298884	-94.780700	1372.874465	-254.551048	100.879145	1396.494129	-423.246633	-30.939507	1608.427705	-324.195220	-3.832987	1585.687226	-301.977332
663	6.62000	190.594814	939.061518	-120.819511	142.666349	1528.880893	-120.301091	47.651961	1641.486751	-183.517583	147.467063	940.690392	-57.720499	233.722625	937.432648	-183.918563	1.293389	515.341602	-66.579676	79.053618	520.553259	-242.314684	165.120994	164.778888	59.358375	142.383505	113.077169	-186.331663	206.056415	129.910029	81.991671	173.919657	63.360710	-171.628611	30.212057	63.997223	-14.219006	-28.393041	62.365361	-246.139802	21.055482	1471.346385	-2.807299	272.583485	1531.004826	-234.353084	-95.100332	1370.892164	-254.414441	98.199798	1394.763551	-423.611432	-33.046938	1606.476835	-325.840892	-6.249809	1584.308702	-303.508390
664	6.63000	191.038439	938.351439	-122.661959	141.708823	1528.183827	-122.684670	45.007666	1639.633665	-184.931772	149.025980	939.975613	-58.922740	233.050941	936.727268	-186.401202	1.742405	514.717453	-67.074935	76.628856	519.833695	-241.245353	166.686408	164.040817	55.256479	140.142795	112.339056	-186.132346	207.896709	129.184235	77.050886	171.767498	62.562012	-171.945188	30.930630	62.970532	-14.827330	-31.262595	61.836657	-242.740900	21.792342	1470.693916	-4.100398	270.415373	1530.337748	-237.407284	-95.419965	1368.909862	-254.277834	95.520452	1393.032974	-423.976231	-35.154369	1604.525965	-327.486565	-8.666632	1582.930177	-305.039448
